<svg xmlns="http://www.w3.org/2000/svg" viewBox="0 0 180 180"><title>33</title><path d="M127.52,30.14h-75a1.5,1.5,0,0,0-1.5,1.5V140a1.5,1.5,0,0,0,1.5,1.5h75A1.5,1.5,0,0,0,129,140V31.64A1.5,1.5,0,0,0,127.52,30.14ZM126,118.53h-6c.1-11.87,5.69-23.07,5.75-23.18a1,1,0,0,0,0-1c-13.28-22.56-12.67-43-12.36-47.3a14.15,14.15,0,0,0,1.67.1,11.88,11.88,0,0,0,6.75-1.93A10.37,10.37,0,0,1,126,43.69Zm-14.1-57.6a92.78,92.78,0,0,0,11.78,34,64.2,64.2,0,0,0-5.33,18.1H61.84a64.2,64.2,0,0,0-5.33-18.1C70.08,71.58,69.14,50.46,68.84,46.63a14.71,14.71,0,0,0,2.89-1.37,10.75,10.75,0,0,1,11.51,0,12.77,12.77,0,0,0,13.5,0,10.75,10.75,0,0,1,11.51,0,14.32,14.32,0,0,0,3.11,1.43A68.07,68.07,0,0,0,111.92,60.93Zm-45-13.87c.3,4.24,1,24.69-12.36,47.33a1,1,0,0,0,0,1,63,63,0,0,1,5.42,18.34,1,1,0,0,0-.07.35.92.92,0,0,0,.17.52c.13,1.31.22,2.63.23,4H54V43.69a10.26,10.26,0,0,1,4.25,1.57A11.91,11.91,0,0,0,65,47.19,13.58,13.58,0,0,0,66.87,47.06ZM54,120.53h7.25a1,1,0,0,0,1-1,44.67,44.67,0,0,0-.17-4.5h56.09a41.91,41.91,0,0,0-.17,4.5,1,1,0,0,0,1,1h7V123H54Zm72-87.39v8.53a12.17,12.17,0,0,0-5.25,1.86,10.82,10.82,0,0,1-11.52,0,12.73,12.73,0,0,0-13.51,0,10.79,10.79,0,0,1-11.5,0,12.73,12.73,0,0,0-13.51,0,10.79,10.79,0,0,1-11.5,0A12.15,12.15,0,0,0,54,41.68V33.14ZM54,138.5V125h72V138.5Z" style="fill:#fff"/><path d="M129.94,17.79H50.06a7.41,7.41,0,0,0-7.4,7.4V154.81a7.41,7.41,0,0,0,7.4,7.4h79.88a7.41,7.41,0,0,0,7.4-7.4V25.19A7.41,7.41,0,0,0,129.94,17.79Zm4.4,137a4.41,4.41,0,0,1-4.4,4.4H50.06a4.41,4.41,0,0,1-4.4-4.4V25.19a4.41,4.41,0,0,1,4.4-4.4h79.88a4.41,4.41,0,0,1,4.4,4.4Z" style="fill:#fff"/><path d="M84.55,26.25h10.9a1,1,0,0,0,0-2H84.55a1,1,0,0,0,0,2Z" style="fill:#fff"/><path d="M80.29,26a1,1,0,0,0,1.09.22,1.46,1.46,0,0,0,.33-.22,1,1,0,0,0,.29-.71,1.05,1.05,0,0,0-.29-.71,1.15,1.15,0,0,0-.33-.21,1,1,0,0,0-.76,0,.93.93,0,0,0-.33.21,1.05,1.05,0,0,0-.29.71,1,1,0,0,0,.07.38A1.06,1.06,0,0,0,80.29,26Z" style="fill:#fff"/><path d="M89.33,143.78a6.08,6.08,0,1,0,6.09,6.08A6.09,6.09,0,0,0,89.33,143.78Zm0,10.16a4.08,4.08,0,1,1,4.09-4.08A4.08,4.08,0,0,1,89.33,153.94Z" style="fill:#fff"/><path d="M90,64.32a21.2,21.2,0,1,0,21.19,21.19A21.22,21.22,0,0,0,90,64.32Zm0,39.39a18.2,18.2,0,1,1,18.19-18.2A18.22,18.22,0,0,1,90,103.71Z" style="fill:#fff"/><path d="M99.89,84.21,84.53,75.35a1.49,1.49,0,0,0-1.5,0,1.51,1.51,0,0,0-.75,1.3V94.38a1.51,1.51,0,0,0,.75,1.3,1.51,1.51,0,0,0,1.5,0l15.36-8.87a1.5,1.5,0,0,0,0-2.6ZM85.28,91.78V79.25l10.86,6.26Z" style="fill:#fff"/></svg>