<svg xmlns="http://www.w3.org/2000/svg" viewBox="0 0 180 180"><title>33</title><path d="M149.59,132.87a8.63,8.63,0,0,0-8-1.43L130.45,135c-4.51,1.45-27.79,8.46-43.31,4.25-6.85-1.86-10.36-4.76-9.88-8.17a3.53,3.53,0,0,1,1.87-2.58c3.17-1.72,12.85-7,16-12.29a3.07,3.07,0,0,0-2.06-4.58l-.16,0L73.59,112h-.1a59,59,0,0,0-29.35,10.87l-2.47,1.77-2.62-8.49a1.51,1.51,0,0,0-.77-.91,1.49,1.49,0,0,0-1.19,0l-7.89,3a8,8,0,0,0-4.8,9.71l9.77,32.77a8,8,0,0,0,7.63,5.69,7.56,7.56,0,0,0,1.33-.12l9.13-1.54a1.51,1.51,0,0,0,1-.7,1.47,1.47,0,0,0,.16-1.23l-1.93-6.24a73.45,73.45,0,0,0,53.91,5.2L116,158.65a73.85,73.85,0,0,0,13.43-5.38l23.36-12.15.06-.83A8.65,8.65,0,0,0,149.59,132.87Zm-107,30.41a5,5,0,0,1-5.58-3.48L27.27,127a5,5,0,0,1,3-6.06l6.4-2.43L50.07,162Zm85.45-12.67a70.61,70.61,0,0,1-12.89,5.15l-10.6,3.08a70.47,70.47,0,0,1-51.75-5l-2.56-1.32-7.67-24.86,3.28-2.36A56.31,56.31,0,0,1,73.7,115l18.89-.35v.06c-1.83,3.07-6.84,6.83-14.88,11.2a6.55,6.55,0,0,0-3.42,4.8c-.5,3.6,1.19,8.51,12.08,11.47,16.33,4.44,40.36-2.79,45-4.28l11.15-3.59a5.66,5.66,0,0,1,7.37,5Z" style="fill:#fff"/><path d="M84.68,91.9A40.75,40.75,0,0,1,87,105.43a3,3,0,0,0,3,3h28.84a3,3,0,0,0,3-3,40.75,40.75,0,0,1,2.3-13.53l4.45-9.46a28.11,28.11,0,0,0-2.91-29.06A26.88,26.88,0,0,0,105.88,43,27.86,27.86,0,0,0,103,43a26.9,26.9,0,0,0-19.85,10.4,28.11,28.11,0,0,0-2.91,29.06Zm.82-36.68A23.63,23.63,0,0,1,103.14,46c.43,0,.86,0,1.29,0s.86,0,1.29,0a23.61,23.61,0,0,1,17.64,9.25,25.1,25.1,0,0,1,2.56,25.93l-4.49,9.53-.06.14a44.9,44.9,0,0,0-2.52,14.63H105.93V70.93a1.5,1.5,0,0,0-2.45-1.16L94.8,76.88a1.52,1.52,0,0,0-.55,1.06,1.46,1.46,0,0,0,.4,1.12L99,83.75a1.5,1.5,0,1,0,2.2-2l-3.26-3.52,5-4.09v31.35l-13,0a44,44,0,0,0-2.49-14.6l-4.55-9.67A25.12,25.12,0,0,1,85.5,55.22Z" style="fill:#fff"/><path d="M104.12,134a14.19,14.19,0,0,1-12.24-7.06,1.5,1.5,0,1,0-2.6,1.5,17.13,17.13,0,0,0,32-8.57,1.5,1.5,0,0,0-1.5-1.5H97.86a1.5,1.5,0,1,0,0,3h20.31A14.15,14.15,0,0,1,104.12,134Z" style="fill:#fff"/><path d="M119.75,112.32H102.09a1.5,1.5,0,0,0,0,3h17.66a1.5,1.5,0,0,0,0-3Z" style="fill:#fff"/><path d="M104.43,37.81a1.5,1.5,0,0,0,1.5-1.5V15.15a1.5,1.5,0,0,0-3,0V36.31A1.5,1.5,0,0,0,104.43,37.81Z" style="fill:#fff"/><path d="M123.67,37.61a1.46,1.46,0,0,0,.75.2,1.5,1.5,0,0,0,1.3-.75l5-8.68a1.5,1.5,0,0,0-2.6-1.5l-5,8.68A1.5,1.5,0,0,0,123.67,37.61Z" style="fill:#fff"/><path d="M154.43,69.43h-10a1.5,1.5,0,0,0,0,3h10a1.5,1.5,0,0,0,0-3Z" style="fill:#fff"/><path d="M83.14,37.06a1.5,1.5,0,0,0,1.3.75,1.46,1.46,0,0,0,.75-.2,1.5,1.5,0,0,0,.55-2l-5-8.68a1.5,1.5,0,0,0-2.6,1.5Z" style="fill:#fff"/><path d="M54.43,72.43h10a1.5,1.5,0,0,0,0-3h-10a1.5,1.5,0,0,0,0,3Z" style="fill:#fff"/><path d="M55.37,44.34,73.7,54.92a1.42,1.42,0,0,0,.74.2,1.5,1.5,0,0,0,.76-2.8L56.87,41.74a1.5,1.5,0,1,0-1.5,2.6Z" style="fill:#fff"/><path d="M134.42,55.12a1.42,1.42,0,0,0,.74-.2l18.33-10.58a1.5,1.5,0,0,0-1.5-2.6L133.66,52.32a1.5,1.5,0,0,0,.76,2.8Z" style="fill:#fff"/></svg>