<svg xmlns="http://www.w3.org/2000/svg" viewBox="0 0 180 180"><title>33</title><path d="M113.41,90A8,8,0,0,0,103,87.13l-.55.27c-9.51,3.48-17.8,3.4-26-.22a7.86,7.86,0,0,0-9.27,1.4,8.71,8.71,0,0,0-1.29,1.76L51.6,115A9,9,0,0,0,52.68,125L56.05,129A8.56,8.56,0,0,0,62.61,132a9.24,9.24,0,0,0,1-.07l.34.81A10,10,0,0,0,73.27,139h32.16a10,10,0,0,0,9.29-6.19l.66-1.58a10.61,10.61,0,0,0,10.49-3.39l2.26-2.62a9,9,0,0,0,.89-10.4Zm-8,46H73.27a7,7,0,0,1-6.51-4.34l-.18-.43,27.48-9.11c7,2.75,15.15,6.44,18.53,8l-.64,1.54A7,7,0,0,1,105.43,136Zm20.42-12.74-2.25,2.63a7.63,7.63,0,0,1-8.2,2.24c-1.47-.7-19.11-9-28.08-11.54-2.9-.82-5.42-3.22-4.52-6.7a1,1,0,0,1,1.1-.7l11.56,2.09a1.49,1.49,0,0,0,.66.12l15.56,2.82a1.5,1.5,0,1,0,.54-3l-2.63-.47a1.14,1.14,0,0,0-.15-.23l-5.91-5.72a1.5,1.5,0,0,0-1.84-.2l-5.88,3.65-11.37-2.06a4,4,0,0,0-3.91,1.57l-.06,0L75,105.36a1.48,1.48,0,0,0-1.78.46l-4.4,5.7c-1.32.1-2.6.2-3.85.33a1.51,1.51,0,0,0,.17,3h.16c1.42-.16,2.91-.27,4.47-.38a93.65,93.65,0,0,0,10.12-1.16c.76,2.85,3.13,5.15,6.62,6.15.93.26,2,.59,3,1l-25.37,8.41A5.54,5.54,0,0,1,58.33,127L55,123.08a6,6,0,0,1-.74-6.65L68.52,91.8a6,6,0,0,1,.84-1.15,4.59,4.59,0,0,1,3.34-1.38,5.32,5.32,0,0,1,2.47.62c9.07,4,18.1,4.09,28.41.29a.47.47,0,0,0,.15-.06l.61-.3a5,5,0,0,1,6.5,1.73l.06.09,15.56,24.71A5.94,5.94,0,0,1,125.85,123.23Zm-25.64-14.16,2.07-1.29,2.11,2ZM79.05,110.4c-2.18.39-4.24.63-6.21.8l2-2.62Z" style="fill:#fff"/><path d="M68.11,66.66A20.95,20.95,0,0,0,109.31,72a1.54,1.54,0,0,0,.14-.53A21,21,0,1,0,68.1,66.59s0,0,0,0Zm21,17.9A18,18,0,0,1,71.16,67.74c7.75-2.07,11.69-5,13.45-6.7,3,2.87,11.63,10.18,21.36,11.6A18,18,0,0,1,89.07,84.56Zm0-35.94a17.89,17.89,0,0,1,17.68,21.1c-11-1.43-21-11.79-21.13-11.9a1.58,1.58,0,0,0-1.22-.45,1.51,1.51,0,0,0-1.12.67s-2.72,3.9-12.06,6.57A18,18,0,0,1,89.07,48.62Z" style="fill:#fff"/><path d="M17.68,61.87a1.44,1.44,0,0,0,.32.86,18.25,18.25,0,1,0-.33-3.39,17.37,17.37,0,0,0,.11,1.92A1.4,1.4,0,0,0,17.68,61.87ZM36,74.65a15.33,15.33,0,0,1-14.81-11.5c8.38-.94,15.77-5.36,18.34-7,1.53,1.06,5,2.84,11.74,4.1A15.32,15.32,0,0,1,36,74.65ZM36,44A15.32,15.32,0,0,1,51.11,57.12c-8.06-1.6-10.42-3.9-10.43-3.9a1.49,1.49,0,0,0-2-.2c-.09.06-8.54,6.13-18,7.15,0-.27,0-.55,0-.83A15.33,15.33,0,0,1,36,44Z" style="fill:#fff"/><path d="M50,111.57a1.57,1.57,0,0,0,.6.12,1.5,1.5,0,0,0,.61-2.87,158,158,0,0,0-16.71-6.53c-2.24-.63-4.56-2.47-3.76-5.54a.62.62,0,0,1,.71-.45l10,1.81a1.77,1.77,0,0,0,.6.11l13.42,2.43a1.5,1.5,0,0,0,.54-3l-2.19-.4a1.53,1.53,0,0,0-.11-.16l-5.1-4.94a1.51,1.51,0,0,0-1.84-.2l-5,3.11L32,93.35a3.64,3.64,0,0,0-3.47,1.3l-4.64-2a1.49,1.49,0,0,0-1.79.46l-3.74,4.85c-1.11.08-2.19.17-3.24.28a1.5,1.5,0,0,0,.17,3h.16c1.22-.13,2.5-.22,3.85-.32a82,82,0,0,0,8.58-1,8.05,8.05,0,0,0,5.81,5.27c.63.18,1.32.4,2,.64l-21.33,7.07a4.61,4.61,0,0,1-4.84-1.51L6.68,108a4.94,4.94,0,0,1-.61-5.5L18.42,81.21a4.79,4.79,0,0,1,.69-.95,4,4,0,0,1,4.79-.62c7.88,3.48,15.72,3.56,24.68.27l.15-.07.53-.26a4.13,4.13,0,0,1,5.4,1.5l6.17,9.8a1.5,1.5,0,0,0,2.54-1.59l-6.19-9.84a7.14,7.14,0,0,0-9.25-2.56l-.46.23c-8.15,3-15.26,2.91-22.28-.18a7,7,0,0,0-8.25,1.25,7.71,7.71,0,0,0-1.14,1.55L3.45,101a8,8,0,0,0,1,8.93l2.91,3.39a7.56,7.56,0,0,0,5.81,2.73,6.83,6.83,0,0,0,.77-.06l.23.58A8.87,8.87,0,0,0,22.34,122h25a1.5,1.5,0,0,0,0-3h-25a5.89,5.89,0,0,1-5.44-3.62l-.07-.17,23.45-7.77C43.58,108.77,47.11,110.28,50,111.57Zm-2.67-16.4,1.22,1.18-2.42-.44Zm-23.58.68,2.85,1.24c-1.46.23-2.86.4-4.21.53Z" style="fill:#fff"/><path d="M144.65,80.52a18,18,0,0,0,17.66-14.64,1.58,1.58,0,0,0,.32-.86,1.52,1.52,0,0,0-.1-.6c.06-.62.1-1.24.1-1.88a18,18,0,1,0-18,18Zm0-3a15,15,0,0,1-14.94-14.11c6.62-1.23,10-3,11.48-4,2.54,1.67,9.75,6,17.94,6.9A15,15,0,0,1,144.65,77.52Zm0-30a15,15,0,0,1,15,15c0,.27,0,.53,0,.79-9.24-1-17.5-6.95-17.58-7a1.5,1.5,0,0,0-2,.2s-2.38,2.25-10.17,3.81A15,15,0,0,1,144.65,47.56Z" style="fill:#fff"/><path d="M176.55,103.34,164.48,82.57A7.48,7.48,0,0,0,163.34,81a6.85,6.85,0,0,0-8-1.27c-7,3.06-13.92,3.14-21.91.21l-.44-.22a7,7,0,0,0-9.12,2.55l-6,9.61a1.5,1.5,0,1,0,2.54,1.6l6.09-9.69a4,4,0,0,1,5.21-1.38l.52.26.15.06c8.79,3.23,16.49,3.15,24.3-.3a3.87,3.87,0,0,1,4.57.64,4.27,4.27,0,0,1,.71,1l12.06,20.78a4.82,4.82,0,0,1-.58,5.4l-2.85,3.33a4.47,4.47,0,0,1-4.64,1.5L145,108.11q1-.35,1.92-.6a7.91,7.91,0,0,0,5.7-5.17,78.13,78.13,0,0,0,8.39,1c1.32.1,2.57.19,3.77.32h.17a1.5,1.5,0,0,0,.16-3c-1-.11-2.07-.19-3.16-.27l-3.66-4.75a1.49,1.49,0,0,0-1.79-.46l-4.53,2a3.6,3.6,0,0,0-3.41-1.28L139,97.58l-4.9-3a1.51,1.51,0,0,0-1.84.2l-5,4.84a.49.49,0,0,0-.1.15l-2.14.39a1.5,1.5,0,0,0,.54,2.95l13.16-2.39a1.45,1.45,0,0,0,.58-.1l9.78-1.78a.59.59,0,0,1,.66.43c.78,3-1.49,4.77-3.67,5.39A155.46,155.46,0,0,0,129.68,111a1.5,1.5,0,0,0-.77,2,1.51,1.51,0,0,0,1.38.9,1.41,1.41,0,0,0,.6-.13c2.85-1.26,6.31-2.74,9.54-4l22.95,7.6,0,.14A5.73,5.73,0,0,1,158,121H133.51a1.5,1.5,0,0,0,0,3H158a8.74,8.74,0,0,0,8.08-5.38l.22-.52c.24,0,.49,0,.73,0a7.46,7.46,0,0,0,5.72-2.69l2.86-3.33A7.87,7.87,0,0,0,176.55,103.34ZM133.5,97.7l1.09.68-2.2.4Zm23.1.67,1.28,1.66c-1.27-.12-2.58-.27-4-.5Z" style="fill:#fff"/></svg>