<svg xmlns="http://www.w3.org/2000/svg" viewBox="0 0 180 180"><title>33</title><path d="M40,115.3H19.29a1.5,1.5,0,0,0-1.5,1.5v43.86a1.5,1.5,0,0,0,1.5,1.5H40a1.5,1.5,0,0,0,1.5-1.5V116.8A1.5,1.5,0,0,0,40,115.3Zm-1.5,43.86H20.79V118.3H38.5Z" style="fill:#fff"/><path d="M80.24,95H59.53a1.5,1.5,0,0,0-1.5,1.5v64.21a1.5,1.5,0,0,0,1.5,1.5H80.24a1.5,1.5,0,0,0,1.5-1.5V96.45A1.5,1.5,0,0,0,80.24,95Zm-1.5,64.21H61V98H78.74Z" style="fill:#fff"/><path d="M120.47,109.16H99.76a1.5,1.5,0,0,0-1.5,1.5v50a1.5,1.5,0,0,0,1.5,1.5h20.71a1.5,1.5,0,0,0,1.5-1.5v-50A1.5,1.5,0,0,0,120.47,109.16Zm-1.5,50H101.26v-47H119Z" style="fill:#fff"/><path d="M160.71,67.69H140a1.5,1.5,0,0,0-1.5,1.5v91.47a1.5,1.5,0,0,0,1.5,1.5h20.71a1.5,1.5,0,0,0,1.5-1.5V69.19A1.5,1.5,0,0,0,160.71,67.69Zm-1.5,91.47H141.5V70.69h17.71Z" style="fill:#fff"/><path d="M65.6,77.94,33.32,91.54a4.27,4.27,0,1,0,1.44,3.18,4,4,0,0,0,0-.5l32-13.49a4.24,4.24,0,0,0,6.5-.16l32.68,11.88a4.27,4.27,0,1,0,7.76-2.83l35.7-56.73,1.47,5.47,2.9-.78-2.42-9a1.5,1.5,0,0,0-.7-.91,1.47,1.47,0,0,0-1.14-.15l-9,2.42.78,2.89,5.54-1.49-35.6,56.57a4.1,4.1,0,0,0-1-.15,4.28,4.28,0,0,0-3.47,1.79L74.15,77.72a4.28,4.28,0,0,0-8.55.16Z" style="fill:#fff"/><path d="M42.1,66.45A24.31,24.31,0,1,0,17.79,42.14,24.33,24.33,0,0,0,42.1,66.45ZM26.27,56.36,41.59,44.48,50.54,61.7a21.22,21.22,0,0,1-24.27-5.34ZM24.41,54a21.41,21.41,0,0,1-3-7l15.18-2.42Zm39-11.87A21.29,21.29,0,0,1,53.19,60.3L43.91,42.42l13.54-15A21.2,21.2,0,0,1,63.4,42.14ZM42.1,20.84A21.14,21.14,0,0,1,55.22,25.4L41.84,40.23,25.06,29.4A21.26,21.26,0,0,1,42.1,20.84ZM23.42,31.91,38,41.32l-17.1,2.73c-.06-.63-.1-1.26-.1-1.91A21.17,21.17,0,0,1,23.42,31.91Z" style="fill:#fff"/></svg>